<mxfile host="app.diagrams.net" modified="2023-04-03T10:49:39.454Z" agent="5.0 (Windows NT 10.0; Win64; x64) AppleWebKit/537.36 (KHTML, like Gecko) Chrome/111.0.0.0 Safari/537.36 Edg/111.0.1661.54" etag="Ddvb77yINGdIChqvbWye" version="21.0.8" type="github">
  <diagram name="第 1 页" id="S1QftpWEGq1zg3Fq66IN">
    <mxGraphModel dx="662" dy="423" grid="1" gridSize="10" guides="1" tooltips="1" connect="1" arrows="1" fold="1" page="1" pageScale="1" pageWidth="827" pageHeight="1169" math="0" shadow="0">
      <root>
        <mxCell id="0" />
        <mxCell id="1" parent="0" />
        <mxCell id="Emok9PFtpWs19b4eqsXd-1" value="待评估帆船" style="rounded=1;whiteSpace=wrap;html=1;fillColor=#ffe6cc;strokeColor=#d79b00;" vertex="1" parent="1">
          <mxGeometry x="130" y="160" width="80" height="50" as="geometry" />
        </mxCell>
        <mxCell id="Emok9PFtpWs19b4eqsXd-3" value="修正地区因素" style="rounded=1;whiteSpace=wrap;html=1;fillColor=#f8cecc;strokeColor=#b85450;" vertex="1" parent="1">
          <mxGeometry x="240" y="160" width="80" height="50" as="geometry" />
        </mxCell>
        <mxCell id="Emok9PFtpWs19b4eqsXd-4" value="其它市场价格" style="rounded=1;whiteSpace=wrap;html=1;fillColor=#dae8fc;strokeColor=#6c8ebf;" vertex="1" parent="1">
          <mxGeometry x="350" y="160" width="80" height="50" as="geometry" />
        </mxCell>
        <mxCell id="Emok9PFtpWs19b4eqsXd-5" value="目标市场价格" style="rounded=1;whiteSpace=wrap;html=1;fillColor=#d5e8d4;strokeColor=#82b366;" vertex="1" parent="1">
          <mxGeometry x="460" y="160" width="80" height="50" as="geometry" />
        </mxCell>
        <mxCell id="Emok9PFtpWs19b4eqsXd-6" value="" style="endArrow=classic;html=1;rounded=0;exitX=1;exitY=0.5;exitDx=0;exitDy=0;entryX=0;entryY=0.5;entryDx=0;entryDy=0;" edge="1" parent="1" source="Emok9PFtpWs19b4eqsXd-1" target="Emok9PFtpWs19b4eqsXd-3">
          <mxGeometry width="50" height="50" relative="1" as="geometry">
            <mxPoint x="380" y="290" as="sourcePoint" />
            <mxPoint x="430" y="240" as="targetPoint" />
          </mxGeometry>
        </mxCell>
        <mxCell id="Emok9PFtpWs19b4eqsXd-7" value="" style="endArrow=classic;html=1;rounded=0;exitX=1;exitY=0.5;exitDx=0;exitDy=0;entryX=0;entryY=0.5;entryDx=0;entryDy=0;" edge="1" parent="1" source="Emok9PFtpWs19b4eqsXd-3" target="Emok9PFtpWs19b4eqsXd-4">
          <mxGeometry width="50" height="50" relative="1" as="geometry">
            <mxPoint x="380" y="290" as="sourcePoint" />
            <mxPoint x="430" y="240" as="targetPoint" />
          </mxGeometry>
        </mxCell>
        <mxCell id="Emok9PFtpWs19b4eqsXd-9" value="" style="endArrow=classic;html=1;rounded=0;exitX=1;exitY=0.5;exitDx=0;exitDy=0;entryX=0;entryY=0.5;entryDx=0;entryDy=0;" edge="1" parent="1" source="Emok9PFtpWs19b4eqsXd-4" target="Emok9PFtpWs19b4eqsXd-5">
          <mxGeometry width="50" height="50" relative="1" as="geometry">
            <mxPoint x="380" y="290" as="sourcePoint" />
            <mxPoint x="430" y="240" as="targetPoint" />
          </mxGeometry>
        </mxCell>
      </root>
    </mxGraphModel>
  </diagram>
</mxfile>
